# xmcd
#
# Track frame offsets:
#	150
#	12462
#	30677
#	46068
#	58693
#	73007
#	87728
#	100282
#	112445
#	128013
#
# Disc length: 1855 seconds
#
# Revision: 0
# Processed by: cddbd v1.5.2PL0 Copyright (c) Steve Scherf et al.
# Submitted via: EasyCDDAExtractor 10.2.0.1
#
DISCID=8f073d0a
DTITLE=Bob Davis - My Biggest Hero
DYEAR=1900
DGENRE=Gospel
TTITLE0=My Biggest Hero
TTITLE1=Never Have To Say Goodbye
TTITLE2=Dear Daddy
TTITLE3=Why I Love Him
TTITLE4=This Ol' Vountry
TTITLE5=It Was Finished
TTITLE6=What Can I Do
TTITLE7=Only Worthy One
TTITLE8=Who Are You
TTITLE9=I Gave My Son For You
EXTD=
EXTT0=
EXTT1=
EXTT2=
EXTT3=
EXTT4=
EXTT5=
EXTT6=
EXTT7=
EXTT8=
EXTT9=
PLAYORDER=
